<svg id="visual" viewBox="0 0 960 300" width="960" height="300" xmlns="http://www.w3.org/2000/svg" xmlns:xlink="http://www.w3.org/1999/xlink" version="1.1"><rect x="0" y="0" width="960" height="300" fill="#071952"></rect><path d="M0 215L22.8 204.2C45.7 193.3 91.3 171.7 137 170.7C182.7 169.7 228.3 189.3 274 197.3C319.7 205.3 365.3 201.7 411.2 198.3C457 195 503 192 548.8 198.8C594.7 205.7 640.3 222.3 686 224.3C731.7 226.3 777.3 213.7 823 204.8C868.7 196 914.3 191 937.2 188.5L960 186L960 0L937.2 0C914.3 0 868.7 0 823 0C777.3 0 731.7 0 686 0C640.3 0 594.7 0 548.8 0C503 0 457 0 411.2 0C365.3 0 319.7 0 274 0C228.3 0 182.7 0 137 0C91.3 0 45.7 0 22.8 0L0 0Z" fill="#97feed"></path><path d="M0 197L22.8 184.3C45.7 171.7 91.3 146.3 137 147.2C182.7 148 228.3 175 274 179.5C319.7 184 365.3 166 411.2 157.5C457 149 503 150 548.8 155C594.7 160 640.3 169 686 172.7C731.7 176.3 777.3 174.7 823 169.2C868.7 163.7 914.3 154.3 937.2 149.7L960 145L960 0L937.2 0C914.3 0 868.7 0 823 0C777.3 0 731.7 0 686 0C640.3 0 594.7 0 548.8 0C503 0 457 0 411.2 0C365.3 0 319.7 0 274 0C228.3 0 182.7 0 137 0C91.3 0 45.7 0 22.8 0L0 0Z" fill="#74d6cc"></path><path d="M0 137L22.8 136C45.7 135 91.3 133 137 133.8C182.7 134.7 228.3 138.3 274 139.8C319.7 141.3 365.3 140.7 411.2 143C457 145.3 503 150.7 548.8 146.3C594.7 142 640.3 128 686 119.7C731.7 111.3 777.3 108.7 823 112.7C868.7 116.7 914.3 127.3 937.2 132.7L960 138L960 0L937.2 0C914.3 0 868.7 0 823 0C777.3 0 731.7 0 686 0C640.3 0 594.7 0 548.8 0C503 0 457 0 411.2 0C365.3 0 319.7 0 274 0C228.3 0 182.7 0 137 0C91.3 0 45.7 0 22.8 0L0 0Z" fill="#53afab"></path><path d="M0 96L22.8 97C45.7 98 91.3 100 137 95C182.7 90 228.3 78 274 77C319.7 76 365.3 86 411.2 92.2C457 98.3 503 100.7 548.8 94.7C594.7 88.7 640.3 74.3 686 66.8C731.7 59.3 777.3 58.7 823 60.7C868.7 62.7 914.3 67.3 937.2 69.7L960 72L960 0L937.2 0C914.3 0 868.7 0 823 0C777.3 0 731.7 0 686 0C640.3 0 594.7 0 548.8 0C503 0 457 0 411.2 0C365.3 0 319.7 0 274 0C228.3 0 182.7 0 137 0C91.3 0 45.7 0 22.8 0L0 0Z" fill="#328a8a"></path><path d="M0 53L22.8 55.2C45.7 57.3 91.3 61.7 137 64.3C182.7 67 228.3 68 274 63.2C319.7 58.3 365.3 47.7 411.2 45.3C457 43 503 49 548.8 50C594.7 51 640.3 47 686 47C731.7 47 777.3 51 823 54.3C868.7 57.7 914.3 60.3 937.2 61.7L960 63L960 0L937.2 0C914.3 0 868.7 0 823 0C777.3 0 731.7 0 686 0C640.3 0 594.7 0 548.8 0C503 0 457 0 411.2 0C365.3 0 319.7 0 274 0C228.3 0 182.7 0 137 0C91.3 0 45.7 0 22.8 0L0 0Z" fill="#0b666a"></path></svg>